<?xml version="1.0" encoding="UTF-8" standalone="no"?>
<!-- Created with Inkscape (http://www.inkscape.org/) -->
<svg xmlns:rdf="http://www.w3.org/1999/02/22-rdf-syntax-ns#" xmlns="http://www.w3.org/2000/svg" height="24" width="24" version="1.1" xmlns:cc="http://creativecommons.org/ns#" xmlns:dc="http://purl.org/dc/elements/1.1/" viewBox="0 0 6.3499999 6.3500002">
 <metadata>
  <rdf:RDF>
   <cc:Work rdf:about="">
    <dc:format>image/svg+xml</dc:format>
    <dc:type rdf:resource="http://purl.org/dc/dcmitype/StillImage"/>
    <dc:title/>
   </cc:Work>
  </rdf:RDF>
 </metadata>
 <g transform="translate(0 -290.65)">
  <path d="m1.3965 2.0137c-0.0352-0.0012-0.0704-0.0006-0.1055 0.0019v0.002c-1.1686 0.07-1.2861 1.7462-0.1387 1.9785l3.6836 0.834 3.2813 11.701c0.5721-0.369 1.239-0.564 1.9198-0.562l-3.5917-12.83-4.8515-1.0999c-0.0648-0.015-0.1309-0.0235-0.1973-0.0254zm13.76 2.5468l-6.7126 1.8868 1.0586 3.8437 6.715-1.8848-1.061-3.8457zm3.289 4.2813l-8.6325 2.4222 1.5935 5.765 8.633-2.422-1.594-5.7652zm2.196 6.6092l-7.655 2.143c0.366 0.573 0.558 1.241 0.553 1.922l6.887-1.93 1.75 0.893c1.215 0.699 2.187-1.206 0.908-1.78l-2.443-1.248zm-10.67 1.535a2.5 2.5 0 0 0 -2.4414 2.301 2.5 2.5 0 0 0 2.2949 2.692 2.5 2.5 0 0 0 2.6898 -2.293 2.5 2.5 0 0 0 -2.293 -2.692 2.5 2.5 0 0 0 -0.2503 -0.008zm0.0623 1.28a1.2222 1.2222 0 0 1 0.086 0.004 1.2222 1.2222 0 0 1 1.121 1.314 1.2222 1.2222 0 0 1 -1.3142 1.121 1.2222 1.2222 0 0 1 -1.1211 -1.316 1.2222 1.2222 0 0 1 1.2283 -1.123z" transform="matrix(.26458 0 0 .26458 0 290.65)" fill="#039be5"/>
  <rect height="6.35" width="6.35" y="290.65" x="0" fill="none"/>
 </g>
</svg>
