<?xml version="1.0" encoding="UTF-8" standalone="no" ?>
<!DOCTYPE svg PUBLIC "-//W3C//DTD SVG 1.1//EN" "http://www.w3.org/Graphics/SVG/1.1/DTD/svg11.dtd">
<svg xmlns="http://www.w3.org/2000/svg" xmlns:xlink="http://www.w3.org/1999/xlink" version="1.1" width="1280" height="1024" viewBox="0 0 1280 1024" xml:space="preserve">
<desc>Created with Fabric.js 4.4.0</desc>
<defs>
</defs>
<g transform="matrix(1 0 0 1 640 512)" id="background-logo"  >
<rect style="stroke: none; stroke-width: 0; stroke-dasharray: none; stroke-linecap: butt; stroke-dashoffset: 0; stroke-linejoin: miter; stroke-miterlimit: 4; fill: rgb(255,255,255); fill-opacity: 0; fill-rule: nonzero; opacity: 1;"  paint-order="stroke"  x="-640" y="-512" rx="0" ry="0" width="1280" height="1024" />
</g>
<g transform="matrix(1.9211538461538462 0 0 1.9211538461538462 640.5021334107767 399.3569497409755)" id="logo-logo"  >
<g style=""  paint-order="stroke"   >
		<g transform="matrix(1.9877925091962751 0 0 -1.9877925091962751 -10.642012566603228 72.06115587450702)"  >
<path style="stroke: none; stroke-width: 1; stroke-dasharray: none; stroke-linecap: butt; stroke-dashoffset: 0; stroke-linejoin: miter; stroke-miterlimit: 4; fill: rgb(44,204,92); fill-rule: nonzero; opacity: 1;"  paint-order="stroke"  transform=" translate(4.612, 5.211500000000001)" d="M 0 0 L -3.051 0 L -3.051 10.714 L -6.176 10.714 L -6.176 0 L -9.225 0 L -13.835 -8.166 L -13.835 -21.137 L -4.612 -21.137 L 4.611000000000001 -21.137 L 4.611000000000001 -8.166 z" stroke-linecap="round" />
</g>
		<g transform="matrix(1.9877925091962751 0 0 -1.9877925091962751 14.57244805080569 -95.37816078663022)"  >
<path style="stroke: none; stroke-width: 1; stroke-dasharray: none; stroke-linecap: butt; stroke-dashoffset: 0; stroke-linejoin: miter; stroke-miterlimit: 4; fill: rgb(255,222,89); fill-rule: nonzero; opacity: 1;"  paint-order="stroke"  transform=" translate(8.709045791496141, 8.714000000000002)" d="M 0 0 C -3.541 -0.411 -8.727 -1.694 -12.499 -5.546 C -15.331 -8.436 -16.999000000000002 -12.440999999999999 -17.466 -17.472 C -12.162 -16.978 -7.996 -15.146 -5.066000000000001 -12.018 C -1.584 -8.297 -0.393 -3.372 0 0 M -20.524 -25.187 C -20.833000000000002 -25.187 -25.098 -25.103 -25.098 -25.103 L -25.173 -21.467000000000002 C -25.357999999999997 -12.488000000000003 -22.915 -5.347000000000001 -17.912 -0.240000000000002 C -10.84 6.978999999999998 -0.9699999999999989 7.758999999999998 2.9440000000000026 7.758999999999998 C 3.7590000000000026 7.758999999999998 7.484000000000003 7.480999999999998 7.484000000000003 7.480999999999998 L 7.729 4.217 C 7.768 3.693 8.527 -8.549 0.5 -17.161 C -4.465 -22.486 -11.538 -25.187 -20.524 -25.187" stroke-linecap="round" />
</g>
		<g transform="matrix(1.9877925091962751 0 0 -1.9877925091962751 -10.642012566603228 -15.10652734251346)"  >
<path style="stroke: none; stroke-width: 1; stroke-dasharray: none; stroke-linecap: butt; stroke-dashoffset: 0; stroke-linejoin: miter; stroke-miterlimit: 4; fill: rgb(255,87,88); fill-rule: nonzero; opacity: 1;"  paint-order="stroke"  transform=" translate(39.049, -21.535500000000003)" d="M 0 0 L -0.158 1.237 C -2.637 20.766 -19.355 35.492000000000004 -39.049 35.492000000000004 C -58.742999999999995 35.492000000000004 -75.461 20.766000000000005 -77.94 1.2370000000000019 L -78.096 0 L -85.714 0 L -85.536 1.575 C -82.856 25.232 -62.871 43.071000000000005 -39.049 43.071000000000005 C -15.227 43.071000000000005 4.758000000000003 25.232000000000006 7.436999999999998 1.5750000000000028 L 7.616 0 Z" stroke-linecap="round" />
</g>
		<g transform="matrix(1.9877925091962751 0 0 -1.9877925091962751 0 85.31694900133331)"  >
<path style="stroke: none; stroke-width: 1; stroke-dasharray: none; stroke-linecap: butt; stroke-dashoffset: 0; stroke-linejoin: miter; stroke-miterlimit: 4; fill: rgb(44,204,92); fill-rule: nonzero; opacity: 1;"  paint-order="stroke"  transform=" translate(42.00981619378318, 6.6114999999999995)" d="M 0 0 C -0.414 -0.652 -2.831 -4.158 -7.396 -5.696 C -5.606 -2.76 -4.133 0.39500000000000046 -3.0170000000000003 3.726000000000001 C -2.41 3.798000000000001 -1.7920000000000003 3.8480000000000008 -1.1850000000000003 3.8480000000000008 C 0.1469999999999998 3.8480000000000008 0.9059999999999999 3.6680000000000006 1.2319999999999995 3.5390000000000006 C 1.22 3.126 1.061 2.043 0 0 M 8.326 8.82 C 6.464 11.275 3.2460000000000004 12.583 -0.9770000000000003 12.621 C -0.9450000000000003 12.863 -0.9040000000000004 13.104000000000001 -0.8770000000000003 13.348 L -0.6980000000000004 14.923 L -8.314 14.923 L -8.473 13.686 C -10.951 -5.843 -27.67 -20.567 -47.364 -20.567 C -67.057 -20.567 -83.776 -5.843 -86.25399999999999 13.686 L -86.41099999999999 14.923 L -94.02899999999998 14.923 L -93.84999999999998 13.348 C -91.16999999999997 -10.307999999999998 -71.18499999999997 -28.146 -47.36399999999998 -28.146 C -34.78599999999999 -28.146 -23.280999999999985 -23.171 -14.825999999999986 -14.995000000000001 C -13.801999999999985 -15.119000000000002 -12.782999999999987 -15.202000000000002 -11.791999999999987 -15.202000000000002 L -11.777999999999988 -15.202000000000002 C 1.117 -15.201 7.336 -4.821 7.606 -4.358 L 7.69 -4.21 C 10.553 1.221 10.766 5.604 8.326 8.82" stroke-linecap="round" />
</g>
</g>
</g>
<g transform="matrix(1.9211538461538462 0 0 1.9211538461538462 639.1325233221346 802.0436156326027)" id="text-logo"  >
<g style=""  paint-order="stroke"   >
		<g transform="matrix(1 0 0 1 0 0)" id="text-logo-path-0"  >
<path style="stroke: none; stroke-width: 0; stroke-dasharray: none; stroke-linecap: butt; stroke-dashoffset: 0; stroke-linejoin: miter; stroke-miterlimit: 4; fill: rgb(44,204,92); fill-rule: nonzero; opacity: 1;"  paint-order="stroke"  transform=" translate(-314.325, 13.985)" d="M 0.4 -37.87 L 10.44 0 L 17.99 0 L 25.2 -22.82 L 32.43 0 L 39.98 0 L 50 -37.87 L 41.67 -37.87 L 35.6 -13.07 L 35.51 -13.07 L 28.1 -37.87 L 22.35 -37.87 L 14.8 -13.07 L 8.78 -37.87 Z M 53.1 0 L 60.6 0 L 60.6 -26.59 L 53.1 -26.59 Z M 53.21 -34.81 C 53.21 -33.42 53.41 -31.96 53.84 -30.41 C 54.74 -29.99 55.68 -29.76 56.69 -29.76 C 57.79 -29.76 58.85 -29.99 59.84 -30.41 C 60.26 -31.38 60.46 -32.39 60.46 -33.44 C 60.46 -34.52 60.26 -35.51 59.84 -36.43 C 58.87 -36.9 57.93 -37.13 56.98 -37.13 C 56.15 -37.13 55.39 -36.9 54.69 -36.45 C 53.97 -36 53.48 -35.47 53.21 -34.81 Z M 65.09 0 L 72.73 0 L 72.73 -12.69 C 72.73 -13.84 72.75 -14.64 72.82 -15.14 C 73.02 -18.58 74.82 -20.33 77.94 -20.33 C 81.47 -20.33 83.13 -18.24 83.13 -13.75 L 83.17 0 L 90.58 0 L 90.54 -14.91 L 90.54 -15.05 C 90.54 -18.69 89.42 -21.56 87.19 -23.67 C 84.95 -25.81 81.89 -26.86 78.03 -26.86 L 77.94 -26.86 C 75.54 -26.86 73.4 -26.26 71.54 -25.07 L 71.54 -26.64 L 65.09 -26.64 Z M 93.59 -12.29 C 93.73 -10.08 94.31 -8.04 95.35 -6.18 C 96.38 -4.31 97.77 -2.79 99.52 -1.62 C 101.28 -0.43 103.21 0.22 105.3 0.36 C 105.88 0.38 106.71 0.4 107.77 0.4 C 111.09 0.25 113.9 -0.7 116.19 -2.38 C 116.3 -2.04 116.37 -1.24 116.37 0 L 121.15 0 L 121.15 -39.6 L 113.7 -39.6 L 113.74 -25.72 C 111.83 -26.48 109.92 -26.86 107.99 -26.86 C 106.6 -26.86 105.43 -26.77 104.51 -26.59 C 101.59 -26.17 99.12 -24.8 97.08 -22.51 C 95.03 -20.21 93.89 -17.54 93.64 -14.49 C 93.59 -14.06 93.57 -13.63 93.57 -13.16 C 93.57 -12.87 93.57 -12.58 93.59 -12.29 Z M 101.23 -13.21 C 101.23 -15.27 101.82 -16.96 103.01 -18.24 C 104.2 -19.52 105.7 -20.15 107.54 -20.15 C 109.18 -20.13 110.55 -19.61 111.68 -18.6 C 112.8 -17.59 113.5 -16.22 113.74 -14.49 L 113.74 -11.81 C 113.5 -10.11 112.8 -8.76 111.68 -7.77 C 110.55 -6.76 109.18 -6.27 107.54 -6.27 C 105.66 -6.27 104.13 -6.9 102.98 -8.18 C 101.82 -9.46 101.23 -11.12 101.23 -13.21 Z M 123.98 -13.21 C 123.98 -11.16 124.39 -9.28 125.17 -7.55 C 125.96 -5.79 126.99 -4.36 128.27 -3.21 C 130.86 -0.92 134.25 0.45 137.66 0.45 C 141.05 0.45 143.97 -0.47 145.88 -1.98 C 147.79 -3.48 149.01 -5.08 149.84 -6.99 L 143.68 -8.38 C 143.03 -7.46 142.13 -6.78 141.03 -6.33 C 140.16 -5.97 139.28 -5.79 138.36 -5.79 C 138.11 -5.79 137.87 -5.82 137.62 -5.84 C 136.11 -5.97 134.79 -6.54 133.67 -7.5 C 132.52 -8.47 131.85 -9.68 131.62 -11.1 L 150.31 -11.1 C 150.31 -16.04 149.16 -19.9 146.89 -22.69 C 144.63 -25.47 141.37 -26.86 137.15 -26.86 C 133.75 -26.86 130.48 -25.45 128.05 -23.11 C 125.6 -20.75 123.98 -17.16 123.98 -13.21 Z M 142.99 -16.15 L 131.76 -16.15 C 132 -17.59 132.61 -18.78 133.6 -19.7 C 134.56 -20.62 135.8 -21.07 137.28 -21.07 C 138.83 -21.07 140.13 -20.57 141.21 -19.56 C 142.27 -18.55 142.87 -17.43 142.99 -16.15 Z M 152.82 -39.01 L 152.91 -13.07 C 152.91 -12.6 152.96 -11.1 152.96 -10.67 C 153.25 -3.73 156.84 -0.16 163.79 0 C 164.26 -0.52 164.71 -1.71 165.18 -3.57 C 165.42 -4.58 165.56 -5.37 165.56 -5.97 C 165.56 -6.47 165.47 -6.83 165.29 -7.03 C 162.8 -7.14 161.34 -8.04 160.93 -9.75 C 160.55 -10.8 160.37 -11.97 160.37 -13.25 L 160.24 -39.01 Z M 171.65 -8.47 L 167 -5.3 C 167.96 -3.55 169.49 -2.16 171.62 -1.15 C 173.76 -0.11 175.98 0.4 178.32 0.4 C 183.71 0.54 188.99 -3.71 188.85 -8.09 C 188.92 -15.54 175.6 -15.86 175.6 -18.87 C 175.6 -20.04 176.52 -20.89 178.41 -20.89 C 180.56 -20.89 182.2 -20.35 183.93 -18.82 L 188.2 -21.9 C 187.05 -23.43 185.48 -24.64 183.51 -25.52 C 181.51 -26.39 179.51 -26.82 177.49 -26.82 C 174.99 -26.82 172.54 -25.7 170.95 -24.12 C 169.36 -22.55 168.32 -20.46 168.32 -18.58 C 168.3 -15.81 170.48 -13.99 172.95 -12.74 C 176.3 -10.94 180.27 -10 180.92 -8.24 C 181.08 -8.13 181.17 -8.02 181.17 -7.91 C 181.17 -6.67 179.93 -5.79 177.58 -5.79 C 175.17 -5.79 173.2 -6.69 171.65 -8.47 Z M 198.13 -13.61 C 198.13 -11.28 198.64 -9.1 199.7 -7.05 C 200.73 -5.01 202.17 -3.37 204.01 -2.09 C 205.85 -0.81 207.88 -0.11 210.1 0 C 210.44 0.02 210.95 0.04 211.65 0.04 C 214.41 -0.04 216.64 -0.85 218.32 -2.38 C 218.25 -1.33 218.16 -0.56 218.05 -0.04 C 217.8 1.57 217.08 2.79 215.87 3.59 C 214.66 4.38 213.31 4.81 211.81 4.83 L 211.45 4.83 C 208.53 4.83 206.01 3.93 203.92 2.16 L 200.06 6.99 C 202.13 10.08 206.01 11.63 211.74 11.63 C 219.31 11.57 225.73 8.02 225.73 -1.06 L 225.73 -26.17 L 220.77 -26.17 C 220.77 -25.54 220.75 -25.02 220.68 -24.62 C 218.61 -26.26 215.83 -27.11 212.35 -27.22 L 210.1 -27.22 C 203.47 -26.91 197.99 -20.51 198.13 -13.61 Z M 205.85 -13.61 C 205.85 -15.68 206.44 -17.34 207.63 -18.62 C 208.82 -19.88 210.32 -20.51 212.17 -20.51 C 215.78 -20.51 217.89 -18.69 218.37 -15.97 C 218.39 -15.79 218.41 -15.52 218.41 -15.18 L 218.41 -13.43 C 218.41 -12.83 218.37 -12.2 218.28 -11.59 C 217.94 -10.08 217.22 -8.87 216.12 -8 C 215.02 -7.12 213.69 -6.67 212.17 -6.67 C 210.28 -6.67 208.75 -7.3 207.61 -8.58 C 206.44 -9.86 205.85 -11.52 205.85 -13.61 Z M 229.39 0 L 236.85 0 L 236.85 -13.75 C 236.85 -14.89 237.14 -16.06 237.79 -17.29 C 238.42 -18.53 239.75 -19.5 241.46 -19.74 C 241.88 -19.81 242.33 -19.83 242.83 -19.83 C 243.7 -19.83 244.71 -19.74 245.86 -19.54 C 246.73 -19.43 247.27 -19.36 247.52 -19.36 L 249.45 -26.08 C 249.2 -26.08 247.72 -26.57 246.15 -26.82 C 245.27 -26.89 244.53 -26.91 243.93 -26.91 C 242.44 -26.84 241.03 -26.46 239.66 -25.74 C 238.29 -25 237.37 -24.21 236.85 -23.36 L 236.85 -26.55 L 229.39 -26.55 Z M 252.01 -13.21 C 252.01 -11.16 252.42 -9.28 253.2 -7.55 C 253.99 -5.79 255.02 -4.36 256.3 -3.21 C 258.88 -0.92 262.28 0.45 265.69 0.45 C 269.08 0.45 272 -0.47 273.91 -1.98 C 275.82 -3.48 277.03 -5.08 277.86 -6.99 L 271.71 -8.38 C 271.06 -7.46 270.16 -6.78 269.06 -6.33 C 268.18 -5.97 267.31 -5.79 266.39 -5.79 C 266.14 -5.79 265.89 -5.82 265.65 -5.84 C 264.14 -5.97 262.82 -6.54 261.69 -7.5 C 260.55 -8.47 259.87 -9.68 259.65 -11.1 L 278.34 -11.1 C 278.34 -16.04 277.19 -19.9 274.92 -22.69 C 272.65 -25.47 269.4 -26.86 265.17 -26.86 C 261.78 -26.86 258.5 -25.45 256.08 -23.11 C 253.63 -20.75 252.01 -17.16 252.01 -13.21 Z M 271.01 -16.15 L 259.78 -16.15 C 260.03 -17.59 260.64 -18.78 261.63 -19.7 C 262.59 -20.62 263.83 -21.07 265.31 -21.07 C 266.86 -21.07 268.16 -20.57 269.24 -19.56 C 270.29 -18.55 270.9 -17.43 271.01 -16.15 Z M 281.08 -13.21 C 281.08 -11.16 281.48 -9.28 282.27 -7.55 C 283.05 -5.79 284.09 -4.36 285.37 -3.21 C 287.95 -0.92 291.34 0.45 294.75 0.45 C 298.15 0.45 301.07 -0.47 302.98 -1.98 C 304.88 -3.48 306.1 -5.08 306.93 -6.99 L 300.77 -8.38 C 300.12 -7.46 299.22 -6.78 298.12 -6.33 C 297.25 -5.97 296.37 -5.79 295.45 -5.79 C 295.2 -5.79 294.96 -5.82 294.71 -5.84 C 293.21 -5.97 291.88 -6.54 290.76 -7.5 C 289.61 -8.47 288.94 -9.68 288.71 -11.1 L 307.4 -11.1 C 307.4 -16.04 306.25 -19.9 303.99 -22.69 C 301.72 -25.47 298.46 -26.86 294.24 -26.86 C 290.85 -26.86 287.57 -25.45 285.14 -23.11 C 282.69 -20.75 281.08 -17.16 281.08 -13.21 Z M 300.08 -16.15 L 288.85 -16.15 C 289.09 -17.59 289.7 -18.78 290.69 -19.7 C 291.66 -20.62 292.89 -21.07 294.37 -21.07 C 295.92 -21.07 297.23 -20.57 298.3 -19.56 C 299.36 -18.55 299.97 -17.43 300.08 -16.15 Z M 311.02 0 L 318.65 0 L 318.65 -12.69 C 318.65 -13.84 318.68 -14.64 318.74 -15.14 C 318.95 -18.58 320.74 -20.33 323.86 -20.33 C 327.39 -20.33 329.05 -18.24 329.05 -13.75 L 329.1 0 L 336.51 0 L 336.46 -14.91 L 336.46 -15.05 C 336.46 -18.69 335.34 -21.56 333.12 -23.67 C 330.87 -25.81 327.82 -26.86 323.95 -26.86 L 323.86 -26.86 C 321.46 -26.86 319.33 -26.26 317.46 -25.07 L 317.46 -26.64 L 311.02 -26.64 Z M 345.61 -10.35 C 345.79 -6.87 347.38 -4 349.81 -2.27 C 352.21 -0.54 355.26 0.4 358.57 0.4 C 360.95 0.38 363.04 0.02 364.81 -0.72 C 366.58 -1.44 368.29 -2.45 369.89 -3.77 C 370.81 -2.81 371.73 -1.89 372.65 -1.01 L 373.66 0 L 384.06 0 L 377.93 -5.88 C 377.25 -6.54 376.22 -7.55 374.85 -8.92 C 375.14 -9.34 375.64 -10.06 375.88 -10.42 C 376.27 -11.01 376.76 -11.57 377.03 -11.72 C 378.44 -12.29 379.19 -12.58 379.23 -12.6 C 379.88 -14.02 380.2 -15.27 380.2 -16.37 C 379.81 -16.33 379.14 -16.19 378.22 -15.97 C 377.3 -15.75 376.54 -15.61 375.95 -15.59 C 375.88 -15.59 375.48 -15.59 374.74 -15.57 C 374 -15.54 373.5 -15.52 373.3 -15.54 C 373.1 -15.54 372.65 -15.57 371.98 -15.61 C 371.3 -15.66 370.76 -15.75 370.34 -15.86 C 369.5 -16.08 368.07 -16.49 366.81 -17.12 C 365.71 -18.4 364.99 -19.7 364.65 -21.07 C 364.92 -21.27 365.39 -21.63 366.05 -22.1 C 366.7 -22.57 367.21 -22.96 367.6 -23.25 C 367.98 -23.54 368.43 -23.94 368.97 -24.48 C 369.48 -25 369.89 -25.52 370.18 -25.99 C 370.74 -26.93 371.19 -28.35 371.03 -29.81 C 370.85 -31.54 370.25 -33.06 369.19 -34.43 C 368.13 -35.8 366.67 -36.81 364.83 -37.51 C 362.99 -38.18 360.97 -38.36 358.75 -38.05 C 356.59 -37.71 354.64 -36.77 353.11 -35.31 C 351.58 -33.85 350.62 -31.58 350.62 -28.97 C 350.59 -28.46 350.73 -27.81 351.02 -27.07 C 351.29 -26.3 351.56 -25.65 351.85 -25.11 C 352.14 -24.57 352.48 -23.97 352.91 -23.27 C 353.31 -22.57 353.54 -22.19 353.56 -22.12 C 353.45 -21.74 353.04 -21.29 352.39 -20.73 C 351.72 -20.17 350.88 -19.47 349.92 -18.69 C 348.93 -17.88 348.14 -17.12 347.54 -16.37 C 346.12 -14.49 345.47 -12.49 345.61 -10.35 Z M 353.78 -10.85 C 353.69 -12.04 354.05 -13.25 354.84 -14.44 C 355.13 -14.87 355.56 -15.3 356.05 -15.68 C 356.3 -15.86 356.48 -15.99 356.63 -16.1 C 356.79 -16.22 356.99 -16.35 357.26 -16.53 C 357.53 -16.69 357.67 -16.78 357.69 -16.8 C 360.27 -13.84 362.47 -11.39 364.32 -9.48 C 363.93 -9.01 363.35 -8.54 362.52 -8.04 C 361.69 -7.55 360.79 -7.23 359.82 -7.12 C 358.18 -6.96 356.77 -7.21 355.6 -7.88 C 354.43 -8.56 353.83 -9.55 353.78 -10.85 Z M 358.39 -28.93 C 358.39 -30.97 359.17 -32.01 361.06 -32.01 C 363.19 -32.01 364 -30.97 364 -28.97 C 364 -27.78 362.54 -26.68 360.27 -25.45 C 360.25 -25.47 360.07 -25.72 359.73 -26.14 C 359.04 -27 358.39 -28.1 358.39 -28.93 Z M 391.02 -12.29 C 391.16 -10.08 391.74 -8.04 392.77 -6.18 C 393.81 -4.31 395.2 -2.79 396.95 -1.62 C 398.7 -0.43 400.64 0.22 402.72 0.36 C 403.31 0.38 404.14 0.4 405.2 0.4 C 408.52 0.25 411.33 -0.7 413.62 -2.38 C 413.73 -2.04 413.8 -1.24 413.8 0 L 418.58 0 L 418.58 -39.6 L 411.13 -39.6 L 411.17 -25.72 C 409.26 -26.48 407.35 -26.86 405.42 -26.86 C 404.03 -26.86 402.86 -26.77 401.94 -26.59 C 399.02 -26.17 396.55 -24.8 394.5 -22.51 C 392.46 -20.21 391.31 -17.54 391.07 -14.49 C 391.02 -14.06 391 -13.63 391 -13.16 C 391 -12.87 391 -12.58 391.02 -12.29 Z M 398.66 -13.21 C 398.66 -15.27 399.24 -16.96 400.43 -18.24 C 401.62 -19.52 403.13 -20.15 404.97 -20.15 C 406.61 -20.13 407.98 -19.61 409.1 -18.6 C 410.23 -17.59 410.92 -16.22 411.17 -14.49 L 411.17 -11.81 C 410.92 -10.11 410.23 -8.76 409.1 -7.77 C 407.98 -6.76 406.61 -6.27 404.97 -6.27 C 403.08 -6.27 401.56 -6.9 400.41 -8.18 C 399.24 -9.46 398.66 -11.12 398.66 -13.21 Z M 421.41 -13.21 C 421.41 -11.16 421.82 -9.28 422.6 -7.55 C 423.39 -5.79 424.42 -4.36 425.7 -3.21 C 428.29 -0.92 431.68 0.45 435.09 0.45 C 438.48 0.45 441.4 -0.47 443.31 -1.98 C 445.22 -3.48 446.43 -5.08 447.26 -6.99 L 441.11 -8.38 C 440.46 -7.46 439.56 -6.78 438.46 -6.33 C 437.58 -5.97 436.71 -5.79 435.79 -5.79 C 435.54 -5.79 435.29 -5.82 435.05 -5.84 C 433.54 -5.97 432.22 -6.54 431.09 -7.5 C 429.95 -8.47 429.27 -9.68 429.05 -11.1 L 447.74 -11.1 C 447.74 -16.04 446.59 -19.9 444.32 -22.69 C 442.05 -25.47 438.8 -26.86 434.57 -26.86 C 431.18 -26.86 427.9 -25.45 425.48 -23.11 C 423.03 -20.75 421.41 -17.16 421.41 -13.21 Z M 440.41 -16.15 L 429.18 -16.15 C 429.43 -17.59 430.04 -18.78 431.03 -19.7 C 431.99 -20.62 433.23 -21.07 434.71 -21.07 C 436.26 -21.07 437.56 -20.57 438.64 -19.56 C 439.7 -18.55 440.3 -17.43 440.41 -16.15 Z M 450.34 -13.16 C 450.34 -9.88 451.46 -6.96 453.69 -4.38 C 455.91 -1.8 458.56 -0.27 461.66 0.18 C 462.13 0.25 462.61 0.27 463.08 0.27 C 463.95 0.27 464.87 0.16 465.79 -0.04 C 468.56 -0.52 470.96 -1.73 472.29 -2.99 C 473.25 -3.95 473.97 -4.83 474.4 -5.57 L 469.61 -8.78 C 468.78 -7.68 467.61 -6.96 466.13 -6.67 C 465.44 -6.45 464.74 -6.33 464.09 -6.33 C 463.77 -6.31 463.46 -6.33 463.14 -6.4 C 461.62 -6.67 460.38 -7.41 459.44 -8.65 C 458.5 -9.86 458.02 -11.39 458.02 -13.21 C 458.05 -15.05 458.52 -16.6 459.46 -17.83 C 460.4 -19.07 461.64 -19.81 463.14 -20.06 C 463.44 -20.08 463.73 -20.1 464 -20.1 C 464.92 -20.1 465.75 -19.92 466.49 -19.59 C 466.67 -19.41 466.83 -19.23 466.96 -19.05 L 467.32 -18.35 L 473.12 -17.7 C 473.32 -18.22 473.41 -19.02 473.41 -20.13 C 473.41 -20.15 473.41 -20.19 473.43 -20.24 C 473.43 -21.29 473.32 -22.21 473.12 -23 C 472.71 -23.72 471.77 -24.48 470.31 -25.27 C 468.85 -26.05 467.12 -26.53 465.12 -26.68 C 464.49 -26.75 463.91 -26.77 463.39 -26.77 C 463.01 -26.77 462.67 -26.75 462.36 -26.73 L 461.66 -26.59 C 459.64 -26.3 457.75 -25.52 456.02 -24.24 C 454.29 -22.96 452.9 -21.32 451.89 -19.36 C 450.86 -17.41 450.34 -15.34 450.34 -13.16 Z M 477.68 -6.54 L 477.68 -6.54 C 478.93 -4.42 480.64 -2.74 482.8 -1.46 C 484.95 -0.18 487.27 0.45 489.72 0.45 C 491.56 0.45 493.33 0.07 495.06 -0.7 C 496.79 -1.44 498.27 -2.45 499.51 -3.68 C 500.74 -4.92 501.73 -6.38 502.47 -8.06 C 503.21 -9.73 503.6 -11.43 503.6 -13.21 C 503.6 -14.96 503.21 -16.67 502.47 -18.35 C 501.73 -20.01 500.74 -21.47 499.51 -22.71 C 498.27 -23.94 496.79 -24.95 495.06 -25.72 C 493.33 -26.48 491.56 -26.86 489.72 -26.86 C 487.27 -26.86 484.98 -26.23 482.82 -24.95 C 480.66 -23.67 478.96 -21.99 477.68 -19.9 C 476.4 -17.79 475.77 -15.57 475.77 -13.21 C 475.77 -10.85 476.4 -8.63 477.68 -6.54 Z M 483.31 -13.21 C 483.31 -15.18 483.92 -16.82 485.13 -18.1 C 486.32 -19.38 487.85 -20.01 489.67 -20.01 C 491.51 -20.01 493.04 -19.38 494.25 -18.1 C 495.44 -16.82 496.05 -15.18 496.05 -13.21 C 496.05 -11.23 495.44 -9.61 494.25 -8.33 C 493.04 -7.05 491.51 -6.4 489.67 -6.4 L 489.56 -6.4 C 487.78 -6.4 486.32 -7.03 485.13 -8.31 C 483.94 -9.59 483.34 -11.23 483.31 -13.21 Z M 513.97 0 L 521.43 0 L 521.43 -13.75 C 521.43 -14.89 521.72 -16.06 522.37 -17.29 C 523 -18.53 524.33 -19.5 526.04 -19.74 C 526.46 -19.81 526.91 -19.83 527.41 -19.83 C 528.28 -19.83 529.29 -19.74 530.44 -19.54 C 531.31 -19.43 531.85 -19.36 532.1 -19.36 L 534.03 -26.08 C 533.78 -26.08 532.3 -26.57 530.73 -26.82 C 529.85 -26.89 529.11 -26.91 528.51 -26.91 C 527.02 -26.84 525.61 -26.46 524.24 -25.74 C 522.87 -25 521.95 -24.21 521.43 -23.36 L 521.43 -26.55 L 513.97 -26.55 Z M 536.59 -13.21 C 536.59 -11.16 537 -9.28 537.78 -7.55 C 538.57 -5.79 539.6 -4.36 540.88 -3.21 C 543.46 -0.92 546.86 0.45 550.27 0.45 C 553.66 0.45 556.58 -0.47 558.49 -1.98 C 560.4 -3.48 561.61 -5.08 562.44 -6.99 L 556.29 -8.38 C 555.64 -7.46 554.74 -6.78 553.64 -6.33 C 552.76 -5.97 551.89 -5.79 550.97 -5.79 C 550.72 -5.79 550.47 -5.82 550.23 -5.84 C 548.72 -5.97 547.4 -6.54 546.27 -7.5 C 545.13 -8.47 544.45 -9.68 544.23 -11.1 L 562.92 -11.1 C 562.92 -16.04 561.77 -19.9 559.5 -22.69 C 557.23 -25.47 553.98 -26.86 549.75 -26.86 C 546.36 -26.86 543.08 -25.45 540.66 -23.11 C 538.21 -20.75 536.59 -17.16 536.59 -13.21 Z M 555.59 -16.15 L 544.36 -16.15 C 544.61 -17.59 545.22 -18.78 546.21 -19.7 C 547.17 -20.62 548.41 -21.07 549.89 -21.07 C 551.44 -21.07 552.74 -20.57 553.82 -19.56 C 554.88 -18.55 555.48 -17.43 555.59 -16.15 Z M 569.86 -8.47 L 565.21 -5.3 C 566.17 -3.55 567.7 -2.16 569.83 -1.15 C 571.97 -0.11 574.19 0.4 576.53 0.4 C 581.92 0.54 587.2 -3.71 587.06 -8.09 C 587.13 -15.54 573.81 -15.86 573.81 -18.87 C 573.81 -20.04 574.73 -20.89 576.62 -20.89 C 578.77 -20.89 580.41 -20.35 582.14 -18.82 L 586.41 -21.9 C 585.26 -23.43 583.69 -24.64 581.72 -25.52 C 579.72 -26.39 577.72 -26.82 575.7 -26.82 C 573.2 -26.82 570.75 -25.7 569.16 -24.12 C 567.57 -22.55 566.53 -20.46 566.53 -18.58 C 566.51 -15.81 568.69 -13.99 571.16 -12.74 C 574.51 -10.94 578.48 -10 579.13 -8.24 C 579.29 -8.13 579.38 -8.02 579.38 -7.91 C 579.38 -6.67 578.14 -5.79 575.79 -5.79 C 573.38 -5.79 571.41 -6.69 569.86 -8.47 Z M 590.77 0 L 598.27 0 L 598.27 -26.59 L 590.77 -26.59 Z M 590.88 -34.81 C 590.88 -33.42 591.08 -31.96 591.51 -30.41 C 592.41 -29.99 593.35 -29.76 594.36 -29.76 C 595.46 -29.76 596.52 -29.99 597.51 -30.41 C 597.93 -31.38 598.13 -32.39 598.13 -33.44 C 598.13 -34.52 597.93 -35.51 597.51 -36.43 C 596.54 -36.9 595.6 -37.13 594.65 -37.13 C 593.82 -37.13 593.06 -36.9 592.36 -36.45 C 591.64 -36 591.15 -35.47 590.88 -34.81 Z M 602.76 0 L 610.4 0 L 610.4 -12.69 C 610.4 -13.84 610.42 -14.64 610.49 -15.14 C 610.69 -18.58 612.49 -20.33 615.61 -20.33 C 619.14 -20.33 620.8 -18.24 620.8 -13.75 L 620.84 0 L 628.25 0 L 628.21 -14.91 L 628.21 -15.05 C 628.21 -18.69 627.09 -21.56 624.86 -23.67 C 622.62 -25.81 619.56 -26.86 615.7 -26.86 L 615.61 -26.86 C 613.21 -26.86 611.07 -26.26 609.21 -25.07 L 609.21 -26.64 L 602.76 -26.64 Z" stroke-linecap="round" />
</g>
</g>
</g>
</svg>