<?xml version="1.0" encoding="UTF-8"?>
<svg width="24" height="24" version="1.1" viewBox="0 0 24 24" xmlns="http://www.w3.org/2000/svg" xmlns:cc="http://creativecommons.org/ns#" xmlns:dc="http://purl.org/dc/elements/1.1/" xmlns:rdf="http://www.w3.org/1999/02/22-rdf-syntax-ns#">
 <metadata>
  <rdf:RDF>
   <cc:Work rdf:about="">
    <dc:format>image/svg+xml</dc:format>
    <dc:type rdf:resource="http://purl.org/dc/dcmitype/StillImage"/>
    <dc:title/>
   </cc:Work>
  </rdf:RDF>
 </metadata>
 <rect transform="scale(-1,1)" x="-24" y="4.4409e-16" width="24" height="24" fill="none"/>
 <path fill="#009688" d="m2 3h20c1.05 0 2 0.95 2 2v14c0 1.05-0.95 2-2 2h-20c-1.05 0-2-0.95-2-2v-14c0-1.05 0.95-2 2-2m12 3v1h8v-1h-8m0 2v1h7.5 0.5v-1h-8m0 2v1h7v-1h-7m-6 3.91c-2 0-6 1.09-6 3.09v1h12v-1c0-2-4-3.09-6-3.09m0-7.91a3 3 0 0 0-3 3 3 3 0 0 0 3 3 3 3 0 0 0 3-3 3 3 0 0 0-3-3z"/>
</svg>
